<?xml version="1.0" encoding="utf-8" standalone="no"?>
<!DOCTYPE svg PUBLIC "-//W3C//DTD SVG 1.1//EN"
  "http://www.w3.org/Graphics/SVG/1.1/DTD/svg11.dtd">
<svg xmlns:xlink="http://www.w3.org/1999/xlink" width="713.560625pt" height="527.5725pt" viewBox="0 0 713.560625 527.5725" xmlns="http://www.w3.org/2000/svg" version="1.1">
 <metadata>
  <rdf:RDF xmlns:dc="http://purl.org/dc/elements/1.1/" xmlns:cc="http://creativecommons.org/ns#" xmlns:rdf="http://www.w3.org/1999/02/22-rdf-syntax-ns#">
   <cc:Work>
    <dc:type rdf:resource="http://purl.org/dc/dcmitype/StillImage"/>
    <dc:date>2022-09-08T18:30:05.463919</dc:date>
    <dc:format>image/svg+xml</dc:format>
    <dc:creator>
     <cc:Agent>
      <dc:title>Matplotlib v3.5.2, https://matplotlib.org/</dc:title>
     </cc:Agent>
    </dc:creator>
   </cc:Work>
  </rdf:RDF>
 </metadata>
 <defs>
  <style type="text/css">*{stroke-linejoin: round; stroke-linecap: butt}</style>
 </defs>
 <g id="figure_1">
  <g id="patch_1">
   <path d="M 0 527.5725 
L 713.560625 527.5725 
L 713.560625 0 
L 0 0 
z
" style="fill: #ffffff"/>
  </g>
  <g id="axes_1">
   <g id="patch_2">
    <path d="M 43.960625 492.48 
L 713.560625 492.48 
L 713.560625 57.6 
L 43.960625 57.6 
z
" style="fill: #ffffff"/>
   </g>
   <g id="matplotlib.axis_1">
    <g id="xtick_1">
     <g id="line2d_1">
      <defs>
       <path id="m842bd4f16b" d="M 0 0 
L 0 -3 
" style="stroke: #000000"/>
      </defs>
      <g>
       <use xlink:href="#m842bd4f16b" x="75.228884" y="492.48" style="stroke: #000000"/>
      </g>
     </g>
     <g id="text_1">
      <text style="font: 14px 'sans-serif'; text-anchor: middle" x="75.228884" y="507.662812" transform="rotate(-0, 75.228884, 507.662812)">0.0</text>
     </g>
    </g>
    <g id="xtick_2">
     <g id="line2d_2">
      <g>
       <use xlink:href="#m842bd4f16b" x="159.802299" y="492.48" style="stroke: #000000"/>
      </g>
     </g>
     <g id="text_2">
      <text style="font: 14px 'sans-serif'; text-anchor: middle" x="159.802299" y="507.662812" transform="rotate(-0, 159.802299, 507.662812)">2.5</text>
     </g>
    </g>
    <g id="xtick_3">
     <g id="line2d_3">
      <g>
       <use xlink:href="#m842bd4f16b" x="244.375714" y="492.48" style="stroke: #000000"/>
      </g>
     </g>
     <g id="text_3">
      <text style="font: 14px 'sans-serif'; text-anchor: middle" x="244.375714" y="507.662812" transform="rotate(-0, 244.375714, 507.662812)">5.0</text>
     </g>
    </g>
    <g id="xtick_4">
     <g id="line2d_4">
      <g>
       <use xlink:href="#m842bd4f16b" x="328.949129" y="492.48" style="stroke: #000000"/>
      </g>
     </g>
     <g id="text_4">
      <text style="font: 14px 'sans-serif'; text-anchor: middle" x="328.949129" y="507.662812" transform="rotate(-0, 328.949129, 507.662812)">7.5</text>
     </g>
    </g>
    <g id="xtick_5">
     <g id="line2d_5">
      <g>
       <use xlink:href="#m842bd4f16b" x="413.522544" y="492.48" style="stroke: #000000"/>
      </g>
     </g>
     <g id="text_5">
      <text style="font: 14px 'sans-serif'; text-anchor: middle" x="413.522544" y="507.662812" transform="rotate(-0, 413.522544, 507.662812)">10.0</text>
     </g>
    </g>
    <g id="xtick_6">
     <g id="line2d_6">
      <g>
       <use xlink:href="#m842bd4f16b" x="498.095959" y="492.48" style="stroke: #000000"/>
      </g>
     </g>
     <g id="text_6">
      <text style="font: 14px 'sans-serif'; text-anchor: middle" x="498.095959" y="507.662812" transform="rotate(-0, 498.095959, 507.662812)">12.5</text>
     </g>
    </g>
    <g id="xtick_7">
     <g id="line2d_7">
      <g>
       <use xlink:href="#m842bd4f16b" x="582.669374" y="492.48" style="stroke: #000000"/>
      </g>
     </g>
     <g id="text_7">
      <text style="font: 14px 'sans-serif'; text-anchor: middle" x="582.669374" y="507.662812" transform="rotate(-0, 582.669374, 507.662812)">15.0</text>
     </g>
    </g>
    <g id="xtick_8">
     <g id="line2d_8">
      <g>
       <use xlink:href="#m842bd4f16b" x="667.242789" y="492.48" style="stroke: #000000"/>
      </g>
     </g>
     <g id="text_8">
      <text style="font: 14px 'sans-serif'; text-anchor: middle" x="667.242789" y="507.662812" transform="rotate(-0, 667.242789, 507.662812)">17.5</text>
     </g>
    </g>
    <g id="text_9">
     <text style="font: 14px 'sans-serif'; text-anchor: middle" x="378.760625" y="524.709062" transform="rotate(-0, 378.760625, 524.709062)">Coefficient value</text>
    </g>
   </g>
   <g id="matplotlib.axis_2">
    <g id="ytick_1">
     <g id="line2d_9">
      <defs>
       <path id="m152af45100" d="M 0 0 
L 3 0 
" style="stroke: #000000"/>
      </defs>
      <g>
       <use xlink:href="#m152af45100" x="43.960625" y="472.712727" style="stroke: #000000"/>
      </g>
     </g>
     <g id="text_10">
      <text style="font: 14px 'sans-serif'; text-anchor: end" x="38.960625" y="477.804134" transform="rotate(-0, 38.960625, 477.804134)">0.0</text>
     </g>
    </g>
    <g id="ytick_2">
     <g id="line2d_10">
      <g>
       <use xlink:href="#m152af45100" x="43.960625" y="393.643636" style="stroke: #000000"/>
      </g>
     </g>
     <g id="text_11">
      <text style="font: 14px 'sans-serif'; text-anchor: end" x="38.960625" y="398.735043" transform="rotate(-0, 38.960625, 398.735043)">0.2</text>
     </g>
    </g>
    <g id="ytick_3">
     <g id="line2d_11">
      <g>
       <use xlink:href="#m152af45100" x="43.960625" y="314.574545" style="stroke: #000000"/>
      </g>
     </g>
     <g id="text_12">
      <text style="font: 14px 'sans-serif'; text-anchor: end" x="38.960625" y="319.665952" transform="rotate(-0, 38.960625, 319.665952)">0.4</text>
     </g>
    </g>
    <g id="ytick_4">
     <g id="line2d_12">
      <g>
       <use xlink:href="#m152af45100" x="43.960625" y="235.505455" style="stroke: #000000"/>
      </g>
     </g>
     <g id="text_13">
      <text style="font: 14px 'sans-serif'; text-anchor: end" x="38.960625" y="240.596861" transform="rotate(-0, 38.960625, 240.596861)">0.6</text>
     </g>
    </g>
    <g id="ytick_5">
     <g id="line2d_13">
      <g>
       <use xlink:href="#m152af45100" x="43.960625" y="156.436364" style="stroke: #000000"/>
      </g>
     </g>
     <g id="text_14">
      <text style="font: 14px 'sans-serif'; text-anchor: end" x="38.960625" y="161.52777" transform="rotate(-0, 38.960625, 161.52777)">0.8</text>
     </g>
    </g>
    <g id="ytick_6">
     <g id="line2d_14">
      <g>
       <use xlink:href="#m152af45100" x="43.960625" y="77.367273" style="stroke: #000000"/>
      </g>
     </g>
     <g id="text_15">
      <text style="font: 14px 'sans-serif'; text-anchor: end" x="38.960625" y="82.458679" transform="rotate(-0, 38.960625, 82.458679)">1.0</text>
     </g>
    </g>
    <g id="text_16">
     <text style="font: 14px 'sans-serif'; text-anchor: middle" x="10.5" y="275.04" transform="rotate(-90, 10.5, 275.04)">Probability</text>
    </g>
   </g>
   <g id="line2d_15">
    <path d="M 74.396989 472.712727 
L 481.039569 77.367273 
L 481.039569 77.367273 
" clip-path="url(#pdbe37aa035)" style="fill: none; stroke-dasharray: 7.4,3.2; stroke-dashoffset: 0; stroke: #000000; stroke-width: 2"/>
   </g>
   <g id="line2d_16">
    <path d="M 74.396989 472.712727 
L 209.519435 341.351937 
L 209.978882 340.720395 
L 212.652127 340.088853 
L 344.494983 321.774127 
L 346.363252 321.142585 
L 346.818262 320.511043 
L 348.676361 318.616416 
L 348.767028 317.984874 
L 349.416617 316.721789 
L 352.014972 314.19562 
L 352.052322 313.564078 
L 353.314149 312.300993 
L 353.963738 311.037909 
L 355.262916 309.774824 
L 355.300064 309.143282 
L 357.861271 306.617113 
L 358.51086 305.354028 
L 358.547618 304.722486 
L 361.758804 301.564775 
L 361.795172 300.933233 
L 362.408392 300.30169 
L 363.057981 299.038606 
L 365.006748 297.143979 
L 365.042726 296.512437 
L 366.955514 294.61781 
L 367.605103 293.354726 
L 368.254692 292.723183 
L 368.290281 292.091641 
L 371.502635 288.93393 
L 371.537835 288.302387 
L 371.775374 287.670845 
L 372.152224 287.039303 
L 374.750579 284.513134 
L 374.785389 283.881592 
L 376.049757 282.618507 
L 376.699346 281.355423 
L 377.998523 280.092338 
L 378.032943 279.460796 
L 380.596878 276.934627 
L 381.246467 275.671542 
L 381.280497 275.04 
L 384.494411 271.882289 
L 384.528051 271.250746 
L 385.144 270.619204 
L 385.793589 269.35612 
L 387.742355 267.461493 
L 387.775606 266.829951 
L 389.691121 264.935324 
L 390.34071 263.672239 
L 390.990299 263.040697 
L 391.02316 262.409155 
L 394.238243 259.251444 
L 394.270714 258.619901 
L 394.509033 257.988359 
L 394.887832 257.356817 
L 397.486187 254.830648 
L 397.518268 254.199105 
L 398.785365 252.936021 
L 399.434953 251.672936 
L 400.734131 250.409852 
L 400.765822 249.77831 
L 403.332486 247.252141 
L 403.982075 245.989056 
L 404.013377 245.357514 
L 407.230019 242.199802 
L 407.260931 241.56826 
L 407.879608 240.936718 
L 408.529196 239.673633 
L 410.477963 237.779007 
L 410.508485 237.147464 
L 412.426729 235.252838 
L 413.076318 233.989753 
L 413.725907 233.358211 
L 413.756039 232.726669 
L 416.973851 229.568957 
L 417.003593 228.937415 
L 417.242691 228.305873 
L 417.623439 227.674331 
L 420.221794 225.148161 
L 420.251147 224.516619 
L 421.520972 223.253535 
L 422.170561 221.99045 
L 423.469738 220.727366 
L 423.498702 220.095823 
L 426.068094 217.569654 
L 426.717682 216.30657 
L 426.746256 215.675028 
L 429.965626 212.517316 
L 429.99381 211.885774 
L 430.615215 211.254232 
L 431.264804 209.991147 
L 433.21357 208.09652 
L 433.241364 207.464978 
L 435.162337 205.570351 
L 435.811925 204.307267 
L 436.461514 203.675725 
L 436.488918 203.044182 
L 439.709458 199.886471 
L 439.736473 199.254929 
L 439.97635 198.623387 
L 440.359047 197.991844 
L 442.957402 195.465675 
L 442.984027 194.834133 
L 444.25658 193.571049 
L 444.906168 192.307964 
L 446.205346 191.044879 
L 446.231581 190.413337 
L 448.803701 187.887168 
L 449.45329 186.624084 
L 449.479135 185.992541 
L 452.701234 182.83483 
L 452.726689 182.203288 
L 453.350823 181.571746 
L 454.000411 180.308661 
L 455.949178 178.414034 
L 455.974243 177.782492 
L 457.897944 175.887865 
L 458.547533 174.624781 
L 459.197122 173.993238 
L 459.221798 173.361696 
L 462.445066 170.203985 
L 462.469352 169.572443 
L 462.710009 168.9409 
L 463.094654 168.309358 
L 465.69301 165.783189 
L 465.716906 165.151647 
L 466.992187 163.888562 
L 467.256741 163.25702 
L 467.641776 162.625478 
L 468.940953 161.362393 
L 468.96446 160.730851 
L 471.539309 158.204682 
L 471.803472 157.57314 
L 472.188897 156.941597 
L 472.212014 156.310055 
L 475.436841 153.152344 
L 475.459568 152.520802 
L 476.08643 151.889259 
L 476.350204 151.257717 
L 476.736019 150.626175 
L 478.684785 148.731548 
L 478.707123 148.100006 
L 480.633552 146.205379 
L 480.896936 145.573837 
L 481.28314 144.942295 
L 481.954677 144.310752 
L 485.202231 143.67921 
L 485.443668 143.047668 
L 488.449785 142.416125 
L 491.697339 141.153041 
L 494.537131 140.521499 
L 494.944894 139.889956 
L 498.192448 139.258414 
L 499.083863 138.626872 
L 503.630595 137.363787 
L 504.687556 136.732245 
L 507.93511 136.100703 
L 508.177326 135.469161 
L 511.182664 134.837618 
L 514.430219 133.574534 
L 517.27079 132.942992 
L 517.677773 132.311449 
L 520.925327 131.679907 
L 521.817522 131.048365 
L 526.364253 129.78528 
L 527.420435 129.153738 
L 530.66799 128.522196 
L 530.910985 127.890653 
L 533.915544 127.259111 
L 537.163098 125.996027 
L 540.004449 125.364484 
L 540.410652 124.732942 
L 543.658206 124.1014 
L 544.55118 123.469858 
L 549.097912 122.206773 
L 550.153315 121.575231 
L 553.400869 120.943689 
L 553.644644 120.312146 
L 556.648423 119.680604 
L 559.895977 118.41752 
L 562.738107 117.785977 
L 563.143531 117.154435 
L 566.391085 116.522893 
L 567.284839 115.891351 
L 571.831571 114.628266 
L 572.886194 113.996724 
L 576.133748 113.365182 
L 576.378303 112.733639 
L 579.381302 112.102097 
L 582.628856 110.839012 
L 585.471766 110.20747 
L 585.876411 109.575928 
L 589.123965 108.944386 
L 590.018498 108.312843 
L 594.56523 107.049759 
L 595.619073 106.418217 
L 598.866627 105.786674 
L 599.111961 105.155132 
L 602.114181 104.52359 
L 605.361736 103.260505 
L 608.205425 102.628963 
L 608.60929 101.997421 
L 611.856844 101.365879 
L 612.752157 100.734336 
L 617.298888 99.471252 
L 618.351952 98.83971 
L 621.599507 98.208167 
L 621.84562 97.576625 
L 624.847061 96.945083 
L 628.094615 95.681998 
L 630.939084 95.050456 
L 631.342169 94.418914 
L 634.589723 93.787371 
L 635.485815 93.155829 
L 640.032547 91.892745 
L 641.084832 91.261202 
L 644.332386 90.62966 
L 644.579279 89.998118 
L 647.57994 89.366576 
L 650.827494 88.103491 
L 653.672742 87.471949 
L 654.075048 86.840407 
L 657.322602 86.208864 
L 658.219474 85.577322 
L 662.766206 84.314238 
L 663.817711 83.682695 
L 667.065265 83.051153 
L 667.312938 82.419611 
L 670.312819 81.788069 
L 673.560373 80.524984 
L 676.401163 79.893442 
L 676.807928 79.2619 
L 680.055482 78.630357 
L 681.278984 77.998815 
L 683.124261 77.367273 
L 683.124261 77.367273 
" clip-path="url(#pdbe37aa035)" style="fill: none; stroke: #000000; stroke-width: 2; stroke-linecap: round"/>
   </g>
   <g id="line2d_17">
    <path d="M 74.398152 472.712727 
L 480.391016 77.367273 
L 480.391016 77.367273 
" clip-path="url(#pdbe37aa035)" style="fill: none; stroke: #000080; stroke-width: 2; stroke-linecap: round"/>
   </g>
   <g id="patch_3">
    <path d="M 43.960625 492.48 
L 43.960625 57.6 
" style="fill: none; stroke: #808080; stroke-linejoin: miter; stroke-linecap: square"/>
   </g>
   <g id="patch_4">
    <path d="M 713.560625 492.48 
L 713.560625 57.6 
" style="fill: none; stroke: #808080; stroke-linejoin: miter; stroke-linecap: square"/>
   </g>
   <g id="patch_5">
    <path d="M 43.960625 492.48 
L 713.560625 492.48 
" style="fill: none; stroke: #808080; stroke-linejoin: miter; stroke-linecap: square"/>
   </g>
   <g id="patch_6">
    <path d="M 43.960625 57.6 
L 713.560625 57.6 
" style="fill: none; stroke: #808080; stroke-linejoin: miter; stroke-linecap: square"/>
   </g>
   <g id="legend_1">
    <g id="line2d_18">
     <path d="M 56.560625 75.8 
L 64.960625 75.8 
L 73.360625 75.8 
" style="fill: none; stroke-dasharray: 7.4,3.2; stroke-dashoffset: 0; stroke: #000000; stroke-width: 2"/>
    </g>
    <g id="text_17">
     <text style="fill: #262626; font: 14px 'sans-serif'; text-anchor: start" x="78.960625" y="80.7" transform="rotate(-0, 78.960625, 80.7)">Original</text>
    </g>
    <g id="line2d_19">
     <path d="M 56.560625 91.805937 
L 64.960625 91.805937 
L 73.360625 91.805937 
" style="fill: none; stroke: #000000; stroke-width: 2; stroke-linecap: round"/>
    </g>
    <g id="text_18">
     <text style="fill: #262626; font: 14px 'sans-serif'; text-anchor: start" x="78.960625" y="96.705938" transform="rotate(-0, 78.960625, 96.705938)">Artifacted</text>
    </g>
    <g id="line2d_20">
     <path d="M 56.560625 107.652187 
L 64.960625 107.652187 
L 73.360625 107.652187 
" style="fill: none; stroke: #000080; stroke-width: 2; stroke-linecap: round"/>
    </g>
    <g id="text_19">
     <text style="fill: #262626; font: 14px 'sans-serif'; text-anchor: start" x="78.960625" y="112.552188" transform="rotate(-0, 78.960625, 112.552188)">WQN</text>
    </g>
   </g>
  </g>
  <g id="text_20">
   <text style="fill: #262626; font: 700 18px 'sans-serif'; text-anchor: middle" x="367.960625" y="13.8375" transform="rotate(-0, 367.960625, 13.8375)">Cusp CDF (wavelet=db2,level=4,cusp_amplitude=3)</text>
  </g>
 </g>
 <defs>
  <clipPath id="pdbe37aa035">
   <rect x="43.960625" y="57.6" width="669.6" height="434.88"/>
  </clipPath>
 </defs>
</svg>
