<?xml version="1.0" encoding="utf-8" standalone="no"?>
<!DOCTYPE svg PUBLIC "-//W3C//DTD SVG 1.1//EN"
  "http://www.w3.org/Graphics/SVG/1.1/DTD/svg11.dtd">
<svg xmlns:xlink="http://www.w3.org/1999/xlink" width="836.672875pt" height="424.447913pt" viewBox="0 0 836.672875 424.447913" xmlns="http://www.w3.org/2000/svg" version="1.1">
 <metadata>
  <rdf:RDF xmlns:dc="http://purl.org/dc/elements/1.1/" xmlns:cc="http://creativecommons.org/ns#" xmlns:rdf="http://www.w3.org/1999/02/22-rdf-syntax-ns#">
   <cc:Work>
    <dc:type rdf:resource="http://purl.org/dc/dcmitype/StillImage"/>
    <dc:date>2022-07-01T12:27:08.529231</dc:date>
    <dc:format>image/svg+xml</dc:format>
    <dc:creator>
     <cc:Agent>
      <dc:title>Matplotlib v3.5.2, https://matplotlib.org/</dc:title>
     </cc:Agent>
    </dc:creator>
   </cc:Work>
  </rdf:RDF>
 </metadata>
 <defs>
  <style type="text/css">*{stroke-linejoin: round; stroke-linecap: butt}</style>
 </defs>
 <g id="figure_1">
  <g id="patch_1">
   <path d="M 0 424.447913 
L 836.672875 424.447913 
L 836.672875 0 
L 0 0 
z
" style="fill: #ffffff"/>
  </g>
  <g id="axes_1">
   <g id="patch_2">
    <path d="M 37.616875 389.2176 
L 836.672875 389.2176 
L 836.672875 0 
L 37.616875 0 
z
" style="fill: #ffffff"/>
   </g>
   <g id="matplotlib.axis_1">
    <g id="xtick_1">
     <g id="line2d_1">
      <defs>
       <path id="mf8b098e2a0" d="M 0 0 
L 0 -3 
" style="stroke: #000000"/>
      </defs>
      <g>
       <use xlink:href="#mf8b098e2a0" x="73.937602" y="389.2176" style="stroke: #000000"/>
      </g>
     </g>
     <g id="text_1">
      <text style="font: 14px 'sans-serif'; text-anchor: middle" x="73.937602" y="404.400413" transform="rotate(-0, 73.937602, 404.400413)">0.0</text>
     </g>
    </g>
    <g id="xtick_2">
     <g id="line2d_2">
      <g>
       <use xlink:href="#mf8b098e2a0" x="219.220511" y="389.2176" style="stroke: #000000"/>
      </g>
     </g>
     <g id="text_2">
      <text style="font: 14px 'sans-serif'; text-anchor: middle" x="219.220511" y="404.400413" transform="rotate(-0, 219.220511, 404.400413)">0.2</text>
     </g>
    </g>
    <g id="xtick_3">
     <g id="line2d_3">
      <g>
       <use xlink:href="#mf8b098e2a0" x="364.50342" y="389.2176" style="stroke: #000000"/>
      </g>
     </g>
     <g id="text_3">
      <text style="font: 14px 'sans-serif'; text-anchor: middle" x="364.50342" y="404.400413" transform="rotate(-0, 364.50342, 404.400413)">0.4</text>
     </g>
    </g>
    <g id="xtick_4">
     <g id="line2d_4">
      <g>
       <use xlink:href="#mf8b098e2a0" x="509.78633" y="389.2176" style="stroke: #000000"/>
      </g>
     </g>
     <g id="text_4">
      <text style="font: 14px 'sans-serif'; text-anchor: middle" x="509.78633" y="404.400413" transform="rotate(-0, 509.78633, 404.400413)">0.6</text>
     </g>
    </g>
    <g id="xtick_5">
     <g id="line2d_5">
      <g>
       <use xlink:href="#mf8b098e2a0" x="655.069239" y="389.2176" style="stroke: #000000"/>
      </g>
     </g>
     <g id="text_5">
      <text style="font: 14px 'sans-serif'; text-anchor: middle" x="655.069239" y="404.400413" transform="rotate(-0, 655.069239, 404.400413)">0.8</text>
     </g>
    </g>
    <g id="xtick_6">
     <g id="line2d_6">
      <g>
       <use xlink:href="#mf8b098e2a0" x="800.352148" y="389.2176" style="stroke: #000000"/>
      </g>
     </g>
     <g id="text_6">
      <text style="font: 14px 'sans-serif'; text-anchor: middle" x="800.352148" y="404.400413" transform="rotate(-0, 800.352148, 404.400413)">1.0</text>
     </g>
    </g>
    <g id="text_7">
     <text style="font: 14px 'sans-serif'; text-anchor: middle" x="437.144875" y="421.584475" transform="rotate(-0, 437.144875, 421.584475)">Mean Squared Error</text>
    </g>
   </g>
   <g id="matplotlib.axis_2">
    <g id="ytick_1">
     <g id="line2d_7">
      <defs>
       <path id="m984af4ac41" d="M 0 0 
L 3 0 
" style="stroke: #000000"/>
      </defs>
      <g>
       <use xlink:href="#m984af4ac41" x="37.616875" y="389.2176" style="stroke: #000000"/>
      </g>
     </g>
     <g id="text_8">
      <text style="font: 14px 'sans-serif'; text-anchor: end" x="32.616875" y="394.309006" transform="rotate(-0, 32.616875, 394.309006)">0</text>
     </g>
    </g>
    <g id="ytick_2">
     <g id="line2d_8">
      <g>
       <use xlink:href="#m984af4ac41" x="37.616875" y="331.411217" style="stroke: #000000"/>
      </g>
     </g>
     <g id="text_9">
      <text style="font: 14px 'sans-serif'; text-anchor: end" x="32.616875" y="336.502624" transform="rotate(-0, 32.616875, 336.502624)">2</text>
     </g>
    </g>
    <g id="ytick_3">
     <g id="line2d_9">
      <g>
       <use xlink:href="#m984af4ac41" x="37.616875" y="273.604835" style="stroke: #000000"/>
      </g>
     </g>
     <g id="text_10">
      <text style="font: 14px 'sans-serif'; text-anchor: end" x="32.616875" y="278.696241" transform="rotate(-0, 32.616875, 278.696241)">4</text>
     </g>
    </g>
    <g id="ytick_4">
     <g id="line2d_10">
      <g>
       <use xlink:href="#m984af4ac41" x="37.616875" y="215.798452" style="stroke: #000000"/>
      </g>
     </g>
     <g id="text_11">
      <text style="font: 14px 'sans-serif'; text-anchor: end" x="32.616875" y="220.889858" transform="rotate(-0, 32.616875, 220.889858)">6</text>
     </g>
    </g>
    <g id="ytick_5">
     <g id="line2d_11">
      <g>
       <use xlink:href="#m984af4ac41" x="37.616875" y="157.99207" style="stroke: #000000"/>
      </g>
     </g>
     <g id="text_12">
      <text style="font: 14px 'sans-serif'; text-anchor: end" x="32.616875" y="163.083476" transform="rotate(-0, 32.616875, 163.083476)">8</text>
     </g>
    </g>
    <g id="ytick_6">
     <g id="line2d_12">
      <g>
       <use xlink:href="#m984af4ac41" x="37.616875" y="100.185687" style="stroke: #000000"/>
      </g>
     </g>
     <g id="text_13">
      <text style="font: 14px 'sans-serif'; text-anchor: end" x="32.616875" y="105.277093" transform="rotate(-0, 32.616875, 105.277093)">10</text>
     </g>
    </g>
    <g id="ytick_7">
     <g id="line2d_13">
      <g>
       <use xlink:href="#m984af4ac41" x="37.616875" y="42.379304" style="stroke: #000000"/>
      </g>
     </g>
     <g id="text_14">
      <text style="font: 14px 'sans-serif'; text-anchor: end" x="32.616875" y="47.470711" transform="rotate(-0, 32.616875, 47.470711)">12</text>
     </g>
    </g>
    <g id="text_15">
     <text style="font: 14px 'sans-serif'; text-anchor: middle" x="10.5" y="194.6088" transform="rotate(-90, 10.5, 194.6088)">Density</text>
    </g>
   </g>
   <g id="patch_3">
    <path d="M 73.937602 389.2176 
L 83.62313 389.2176 
L 83.62313 389.2176 
L 73.937602 389.2176 
z
" clip-path="url(#p36fc20db25)" style="fill: #009e73; opacity: 0.75"/>
   </g>
   <g id="patch_4">
    <path d="M 83.62313 389.2176 
L 93.308657 389.2176 
L 93.308657 300.340287 
L 83.62313 300.340287 
z
" clip-path="url(#p36fc20db25)" style="fill: #009e73; opacity: 0.75"/>
   </g>
   <g id="patch_5">
    <path d="M 93.308657 389.2176 
L 102.994184 389.2176 
L 102.994184 85.734091 
L 93.308657 85.734091 
z
" clip-path="url(#p36fc20db25)" style="fill: #009e73; opacity: 0.75"/>
   </g>
   <g id="patch_6">
    <path d="M 102.994184 389.2176 
L 112.679711 389.2176 
L 112.679711 18.534171 
L 102.994184 18.534171 
z
" clip-path="url(#p36fc20db25)" style="fill: #009e73; opacity: 0.75"/>
   </g>
   <g id="patch_7">
    <path d="M 112.679711 389.2176 
L 122.365239 389.2176 
L 122.365239 51.050262 
L 112.679711 51.050262 
z
" clip-path="url(#p36fc20db25)" style="fill: #009e73; opacity: 0.75"/>
   </g>
   <g id="patch_8">
    <path d="M 122.365239 389.2176 
L 132.050766 389.2176 
L 132.050766 100.908267 
L 122.365239 100.908267 
z
" clip-path="url(#p36fc20db25)" style="fill: #009e73; opacity: 0.75"/>
   </g>
   <g id="patch_9">
    <path d="M 132.050766 389.2176 
L 141.736293 389.2176 
L 141.736293 152.934011 
L 132.050766 152.934011 
z
" clip-path="url(#p36fc20db25)" style="fill: #009e73; opacity: 0.75"/>
   </g>
   <g id="patch_10">
    <path d="M 141.736293 389.2176 
L 151.42182 389.2176 
L 151.42182 265.656457 
L 141.736293 265.656457 
z
" clip-path="url(#p36fc20db25)" style="fill: #009e73; opacity: 0.75"/>
   </g>
   <g id="patch_11">
    <path d="M 151.42182 389.2176 
L 161.107348 389.2176 
L 161.107348 259.153239 
L 151.42182 259.153239 
z
" clip-path="url(#p36fc20db25)" style="fill: #009e73; opacity: 0.75"/>
   </g>
   <g id="patch_12">
    <path d="M 161.107348 389.2176 
L 170.792875 389.2176 
L 170.792875 300.340287 
L 161.107348 300.340287 
z
" clip-path="url(#p36fc20db25)" style="fill: #009e73; opacity: 0.75"/>
   </g>
   <g id="patch_13">
    <path d="M 170.792875 389.2176 
L 180.478402 389.2176 
L 180.478402 345.862813 
L 170.792875 345.862813 
z
" clip-path="url(#p36fc20db25)" style="fill: #009e73; opacity: 0.75"/>
   </g>
   <g id="patch_14">
    <path d="M 180.478402 389.2176 
L 190.16393 389.2176 
L 190.16393 343.695074 
L 180.478402 343.695074 
z
" clip-path="url(#p36fc20db25)" style="fill: #009e73; opacity: 0.75"/>
   </g>
   <g id="patch_15">
    <path d="M 190.16393 389.2176 
L 199.849457 389.2176 
L 199.849457 361.036988 
L 190.16393 361.036988 
z
" clip-path="url(#p36fc20db25)" style="fill: #009e73; opacity: 0.75"/>
   </g>
   <g id="patch_16">
    <path d="M 199.849457 389.2176 
L 209.534984 389.2176 
L 209.534984 358.869249 
L 199.849457 358.869249 
z
" clip-path="url(#p36fc20db25)" style="fill: #009e73; opacity: 0.75"/>
   </g>
   <g id="patch_17">
    <path d="M 209.534984 389.2176 
L 219.220511 389.2176 
L 219.220511 380.546643 
L 209.534984 380.546643 
z
" clip-path="url(#p36fc20db25)" style="fill: #009e73; opacity: 0.75"/>
   </g>
   <g id="patch_18">
    <path d="M 219.220511 389.2176 
L 228.906039 389.2176 
L 228.906039 382.714382 
L 219.220511 382.714382 
z
" clip-path="url(#p36fc20db25)" style="fill: #009e73; opacity: 0.75"/>
   </g>
   <g id="patch_19">
    <path d="M 228.906039 389.2176 
L 238.591566 389.2176 
L 238.591566 374.043425 
L 228.906039 374.043425 
z
" clip-path="url(#p36fc20db25)" style="fill: #009e73; opacity: 0.75"/>
   </g>
   <g id="patch_20">
    <path d="M 238.591566 389.2176 
L 248.277093 389.2176 
L 248.277093 384.882121 
L 238.591566 384.882121 
z
" clip-path="url(#p36fc20db25)" style="fill: #009e73; opacity: 0.75"/>
   </g>
   <g id="patch_21">
    <path d="M 248.277093 389.2176 
L 257.96262 389.2176 
L 257.96262 384.882121 
L 248.277093 384.882121 
z
" clip-path="url(#p36fc20db25)" style="fill: #009e73; opacity: 0.75"/>
   </g>
   <g id="patch_22">
    <path d="M 257.96262 389.2176 
L 267.648148 389.2176 
L 267.648148 382.714382 
L 257.96262 382.714382 
z
" clip-path="url(#p36fc20db25)" style="fill: #009e73; opacity: 0.75"/>
   </g>
   <g id="patch_23">
    <path d="M 267.648148 389.2176 
L 277.333675 389.2176 
L 277.333675 384.882121 
L 267.648148 384.882121 
z
" clip-path="url(#p36fc20db25)" style="fill: #009e73; opacity: 0.75"/>
   </g>
   <g id="patch_24">
    <path d="M 277.333675 389.2176 
L 287.019202 389.2176 
L 287.019202 389.2176 
L 277.333675 389.2176 
z
" clip-path="url(#p36fc20db25)" style="fill: #009e73; opacity: 0.75"/>
   </g>
   <g id="patch_25">
    <path d="M 287.019202 389.2176 
L 296.70473 389.2176 
L 296.70473 387.049861 
L 287.019202 387.049861 
z
" clip-path="url(#p36fc20db25)" style="fill: #009e73; opacity: 0.75"/>
   </g>
   <g id="patch_26">
    <path d="M 296.70473 389.2176 
L 306.390257 389.2176 
L 306.390257 389.2176 
L 296.70473 389.2176 
z
" clip-path="url(#p36fc20db25)" style="fill: #009e73; opacity: 0.75"/>
   </g>
   <g id="patch_27">
    <path d="M 306.390257 389.2176 
L 316.075784 389.2176 
L 316.075784 389.2176 
L 306.390257 389.2176 
z
" clip-path="url(#p36fc20db25)" style="fill: #009e73; opacity: 0.75"/>
   </g>
   <g id="patch_28">
    <path d="M 316.075784 389.2176 
L 325.761311 389.2176 
L 325.761311 389.2176 
L 316.075784 389.2176 
z
" clip-path="url(#p36fc20db25)" style="fill: #009e73; opacity: 0.75"/>
   </g>
   <g id="patch_29">
    <path d="M 325.761311 389.2176 
L 335.446839 389.2176 
L 335.446839 389.2176 
L 325.761311 389.2176 
z
" clip-path="url(#p36fc20db25)" style="fill: #009e73; opacity: 0.75"/>
   </g>
   <g id="patch_30">
    <path d="M 335.446839 389.2176 
L 345.132366 389.2176 
L 345.132366 389.2176 
L 335.446839 389.2176 
z
" clip-path="url(#p36fc20db25)" style="fill: #009e73; opacity: 0.75"/>
   </g>
   <g id="patch_31">
    <path d="M 345.132366 389.2176 
L 354.817893 389.2176 
L 354.817893 389.2176 
L 345.132366 389.2176 
z
" clip-path="url(#p36fc20db25)" style="fill: #009e73; opacity: 0.75"/>
   </g>
   <g id="patch_32">
    <path d="M 354.817893 389.2176 
L 364.50342 389.2176 
L 364.50342 389.2176 
L 354.817893 389.2176 
z
" clip-path="url(#p36fc20db25)" style="fill: #009e73; opacity: 0.75"/>
   </g>
   <g id="patch_33">
    <path d="M 364.50342 389.2176 
L 374.188948 389.2176 
L 374.188948 389.2176 
L 364.50342 389.2176 
z
" clip-path="url(#p36fc20db25)" style="fill: #009e73; opacity: 0.75"/>
   </g>
   <g id="patch_34">
    <path d="M 374.188948 389.2176 
L 383.874475 389.2176 
L 383.874475 389.2176 
L 374.188948 389.2176 
z
" clip-path="url(#p36fc20db25)" style="fill: #009e73; opacity: 0.75"/>
   </g>
   <g id="patch_35">
    <path d="M 383.874475 389.2176 
L 393.560002 389.2176 
L 393.560002 389.2176 
L 383.874475 389.2176 
z
" clip-path="url(#p36fc20db25)" style="fill: #009e73; opacity: 0.75"/>
   </g>
   <g id="patch_36">
    <path d="M 393.560002 389.2176 
L 403.24553 389.2176 
L 403.24553 389.2176 
L 393.560002 389.2176 
z
" clip-path="url(#p36fc20db25)" style="fill: #009e73; opacity: 0.75"/>
   </g>
   <g id="patch_37">
    <path d="M 403.24553 389.2176 
L 412.931057 389.2176 
L 412.931057 389.2176 
L 403.24553 389.2176 
z
" clip-path="url(#p36fc20db25)" style="fill: #009e73; opacity: 0.75"/>
   </g>
   <g id="patch_38">
    <path d="M 412.931057 389.2176 
L 422.616584 389.2176 
L 422.616584 389.2176 
L 412.931057 389.2176 
z
" clip-path="url(#p36fc20db25)" style="fill: #009e73; opacity: 0.75"/>
   </g>
   <g id="patch_39">
    <path d="M 422.616584 389.2176 
L 432.302111 389.2176 
L 432.302111 389.2176 
L 422.616584 389.2176 
z
" clip-path="url(#p36fc20db25)" style="fill: #009e73; opacity: 0.75"/>
   </g>
   <g id="patch_40">
    <path d="M 432.302111 389.2176 
L 441.987639 389.2176 
L 441.987639 389.2176 
L 432.302111 389.2176 
z
" clip-path="url(#p36fc20db25)" style="fill: #009e73; opacity: 0.75"/>
   </g>
   <g id="patch_41">
    <path d="M 441.987639 389.2176 
L 451.673166 389.2176 
L 451.673166 389.2176 
L 441.987639 389.2176 
z
" clip-path="url(#p36fc20db25)" style="fill: #009e73; opacity: 0.75"/>
   </g>
   <g id="patch_42">
    <path d="M 451.673166 389.2176 
L 461.358693 389.2176 
L 461.358693 389.2176 
L 451.673166 389.2176 
z
" clip-path="url(#p36fc20db25)" style="fill: #009e73; opacity: 0.75"/>
   </g>
   <g id="patch_43">
    <path d="M 461.358693 389.2176 
L 471.04422 389.2176 
L 471.04422 389.2176 
L 461.358693 389.2176 
z
" clip-path="url(#p36fc20db25)" style="fill: #009e73; opacity: 0.75"/>
   </g>
   <g id="patch_44">
    <path d="M 471.04422 389.2176 
L 480.729748 389.2176 
L 480.729748 389.2176 
L 471.04422 389.2176 
z
" clip-path="url(#p36fc20db25)" style="fill: #009e73; opacity: 0.75"/>
   </g>
   <g id="patch_45">
    <path d="M 480.729748 389.2176 
L 490.415275 389.2176 
L 490.415275 389.2176 
L 480.729748 389.2176 
z
" clip-path="url(#p36fc20db25)" style="fill: #009e73; opacity: 0.75"/>
   </g>
   <g id="patch_46">
    <path d="M 490.415275 389.2176 
L 500.100802 389.2176 
L 500.100802 389.2176 
L 490.415275 389.2176 
z
" clip-path="url(#p36fc20db25)" style="fill: #009e73; opacity: 0.75"/>
   </g>
   <g id="patch_47">
    <path d="M 500.100802 389.2176 
L 509.78633 389.2176 
L 509.78633 389.2176 
L 500.100802 389.2176 
z
" clip-path="url(#p36fc20db25)" style="fill: #009e73; opacity: 0.75"/>
   </g>
   <g id="patch_48">
    <path d="M 509.78633 389.2176 
L 519.471857 389.2176 
L 519.471857 389.2176 
L 509.78633 389.2176 
z
" clip-path="url(#p36fc20db25)" style="fill: #009e73; opacity: 0.75"/>
   </g>
   <g id="patch_49">
    <path d="M 519.471857 389.2176 
L 529.157384 389.2176 
L 529.157384 389.2176 
L 519.471857 389.2176 
z
" clip-path="url(#p36fc20db25)" style="fill: #009e73; opacity: 0.75"/>
   </g>
   <g id="patch_50">
    <path d="M 529.157384 389.2176 
L 538.842911 389.2176 
L 538.842911 389.2176 
L 529.157384 389.2176 
z
" clip-path="url(#p36fc20db25)" style="fill: #009e73; opacity: 0.75"/>
   </g>
   <g id="patch_51">
    <path d="M 538.842911 389.2176 
L 548.528439 389.2176 
L 548.528439 389.2176 
L 538.842911 389.2176 
z
" clip-path="url(#p36fc20db25)" style="fill: #009e73; opacity: 0.75"/>
   </g>
   <g id="patch_52">
    <path d="M 548.528439 389.2176 
L 558.213966 389.2176 
L 558.213966 389.2176 
L 548.528439 389.2176 
z
" clip-path="url(#p36fc20db25)" style="fill: #009e73; opacity: 0.75"/>
   </g>
   <g id="patch_53">
    <path d="M 558.213966 389.2176 
L 567.899493 389.2176 
L 567.899493 389.2176 
L 558.213966 389.2176 
z
" clip-path="url(#p36fc20db25)" style="fill: #009e73; opacity: 0.75"/>
   </g>
   <g id="patch_54">
    <path d="M 567.899493 389.2176 
L 577.58502 389.2176 
L 577.58502 389.2176 
L 567.899493 389.2176 
z
" clip-path="url(#p36fc20db25)" style="fill: #009e73; opacity: 0.75"/>
   </g>
   <g id="patch_55">
    <path d="M 577.58502 389.2176 
L 587.270548 389.2176 
L 587.270548 389.2176 
L 577.58502 389.2176 
z
" clip-path="url(#p36fc20db25)" style="fill: #009e73; opacity: 0.75"/>
   </g>
   <g id="patch_56">
    <path d="M 587.270548 389.2176 
L 596.956075 389.2176 
L 596.956075 389.2176 
L 587.270548 389.2176 
z
" clip-path="url(#p36fc20db25)" style="fill: #009e73; opacity: 0.75"/>
   </g>
   <g id="patch_57">
    <path d="M 596.956075 389.2176 
L 606.641602 389.2176 
L 606.641602 389.2176 
L 596.956075 389.2176 
z
" clip-path="url(#p36fc20db25)" style="fill: #009e73; opacity: 0.75"/>
   </g>
   <g id="patch_58">
    <path d="M 606.641602 389.2176 
L 616.32713 389.2176 
L 616.32713 389.2176 
L 606.641602 389.2176 
z
" clip-path="url(#p36fc20db25)" style="fill: #009e73; opacity: 0.75"/>
   </g>
   <g id="patch_59">
    <path d="M 616.32713 389.2176 
L 626.012657 389.2176 
L 626.012657 389.2176 
L 616.32713 389.2176 
z
" clip-path="url(#p36fc20db25)" style="fill: #009e73; opacity: 0.75"/>
   </g>
   <g id="patch_60">
    <path d="M 626.012657 389.2176 
L 635.698184 389.2176 
L 635.698184 389.2176 
L 626.012657 389.2176 
z
" clip-path="url(#p36fc20db25)" style="fill: #009e73; opacity: 0.75"/>
   </g>
   <g id="patch_61">
    <path d="M 635.698184 389.2176 
L 645.383711 389.2176 
L 645.383711 389.2176 
L 635.698184 389.2176 
z
" clip-path="url(#p36fc20db25)" style="fill: #009e73; opacity: 0.75"/>
   </g>
   <g id="patch_62">
    <path d="M 645.383711 389.2176 
L 655.069239 389.2176 
L 655.069239 389.2176 
L 645.383711 389.2176 
z
" clip-path="url(#p36fc20db25)" style="fill: #009e73; opacity: 0.75"/>
   </g>
   <g id="patch_63">
    <path d="M 655.069239 389.2176 
L 664.754766 389.2176 
L 664.754766 389.2176 
L 655.069239 389.2176 
z
" clip-path="url(#p36fc20db25)" style="fill: #009e73; opacity: 0.75"/>
   </g>
   <g id="patch_64">
    <path d="M 664.754766 389.2176 
L 674.440293 389.2176 
L 674.440293 389.2176 
L 664.754766 389.2176 
z
" clip-path="url(#p36fc20db25)" style="fill: #009e73; opacity: 0.75"/>
   </g>
   <g id="patch_65">
    <path d="M 674.440293 389.2176 
L 684.12582 389.2176 
L 684.12582 389.2176 
L 674.440293 389.2176 
z
" clip-path="url(#p36fc20db25)" style="fill: #009e73; opacity: 0.75"/>
   </g>
   <g id="patch_66">
    <path d="M 684.12582 389.2176 
L 693.811348 389.2176 
L 693.811348 389.2176 
L 684.12582 389.2176 
z
" clip-path="url(#p36fc20db25)" style="fill: #009e73; opacity: 0.75"/>
   </g>
   <g id="patch_67">
    <path d="M 693.811348 389.2176 
L 703.496875 389.2176 
L 703.496875 389.2176 
L 693.811348 389.2176 
z
" clip-path="url(#p36fc20db25)" style="fill: #009e73; opacity: 0.75"/>
   </g>
   <g id="patch_68">
    <path d="M 703.496875 389.2176 
L 713.182402 389.2176 
L 713.182402 389.2176 
L 703.496875 389.2176 
z
" clip-path="url(#p36fc20db25)" style="fill: #009e73; opacity: 0.75"/>
   </g>
   <g id="patch_69">
    <path d="M 713.182402 389.2176 
L 722.86793 389.2176 
L 722.86793 389.2176 
L 713.182402 389.2176 
z
" clip-path="url(#p36fc20db25)" style="fill: #009e73; opacity: 0.75"/>
   </g>
   <g id="patch_70">
    <path d="M 722.86793 389.2176 
L 732.553457 389.2176 
L 732.553457 389.2176 
L 722.86793 389.2176 
z
" clip-path="url(#p36fc20db25)" style="fill: #009e73; opacity: 0.75"/>
   </g>
   <g id="patch_71">
    <path d="M 732.553457 389.2176 
L 742.238984 389.2176 
L 742.238984 389.2176 
L 732.553457 389.2176 
z
" clip-path="url(#p36fc20db25)" style="fill: #009e73; opacity: 0.75"/>
   </g>
   <g id="patch_72">
    <path d="M 742.238984 389.2176 
L 751.924511 389.2176 
L 751.924511 389.2176 
L 742.238984 389.2176 
z
" clip-path="url(#p36fc20db25)" style="fill: #009e73; opacity: 0.75"/>
   </g>
   <g id="patch_73">
    <path d="M 751.924511 389.2176 
L 761.610039 389.2176 
L 761.610039 389.2176 
L 751.924511 389.2176 
z
" clip-path="url(#p36fc20db25)" style="fill: #009e73; opacity: 0.75"/>
   </g>
   <g id="patch_74">
    <path d="M 761.610039 389.2176 
L 771.295566 389.2176 
L 771.295566 389.2176 
L 761.610039 389.2176 
z
" clip-path="url(#p36fc20db25)" style="fill: #009e73; opacity: 0.75"/>
   </g>
   <g id="patch_75">
    <path d="M 771.295566 389.2176 
L 780.981093 389.2176 
L 780.981093 389.2176 
L 771.295566 389.2176 
z
" clip-path="url(#p36fc20db25)" style="fill: #009e73; opacity: 0.75"/>
   </g>
   <g id="patch_76">
    <path d="M 780.981093 389.2176 
L 790.66662 389.2176 
L 790.66662 389.2176 
L 780.981093 389.2176 
z
" clip-path="url(#p36fc20db25)" style="fill: #009e73; opacity: 0.75"/>
   </g>
   <g id="patch_77">
    <path d="M 790.66662 389.2176 
L 800.352148 389.2176 
L 800.352148 389.2176 
L 790.66662 389.2176 
z
" clip-path="url(#p36fc20db25)" style="fill: #009e73; opacity: 0.75"/>
   </g>
   <g id="patch_78">
    <path d="M 73.937602 389.2176 
L 83.62313 389.2176 
L 83.62313 389.2176 
L 73.937602 389.2176 
z
" clip-path="url(#p36fc20db25)" style="fill: #0072b2; opacity: 0.75"/>
   </g>
   <g id="patch_79">
    <path d="M 83.62313 389.2176 
L 93.308657 389.2176 
L 93.308657 389.2176 
L 83.62313 389.2176 
z
" clip-path="url(#p36fc20db25)" style="fill: #0072b2; opacity: 0.75"/>
   </g>
   <g id="patch_80">
    <path d="M 93.308657 389.2176 
L 102.994184 389.2176 
L 102.994184 374.043425 
L 93.308657 374.043425 
z
" clip-path="url(#p36fc20db25)" style="fill: #0072b2; opacity: 0.75"/>
   </g>
   <g id="patch_81">
    <path d="M 102.994184 389.2176 
L 112.679711 389.2176 
L 112.679711 322.01768 
L 102.994184 322.01768 
z
" clip-path="url(#p36fc20db25)" style="fill: #0072b2; opacity: 0.75"/>
   </g>
   <g id="patch_82">
    <path d="M 112.679711 389.2176 
L 122.365239 389.2176 
L 122.365239 296.004808 
L 112.679711 296.004808 
z
" clip-path="url(#p36fc20db25)" style="fill: #0072b2; opacity: 0.75"/>
   </g>
   <g id="patch_83">
    <path d="M 122.365239 389.2176 
L 132.050766 389.2176 
L 132.050766 267.824196 
L 122.365239 267.824196 
z
" clip-path="url(#p36fc20db25)" style="fill: #0072b2; opacity: 0.75"/>
   </g>
   <g id="patch_84">
    <path d="M 132.050766 389.2176 
L 141.736293 389.2176 
L 141.736293 256.9855 
L 132.050766 256.9855 
z
" clip-path="url(#p36fc20db25)" style="fill: #0072b2; opacity: 0.75"/>
   </g>
   <g id="patch_85">
    <path d="M 141.736293 389.2176 
L 151.42182 389.2176 
L 151.42182 233.140367 
L 141.736293 233.140367 
z
" clip-path="url(#p36fc20db25)" style="fill: #0072b2; opacity: 0.75"/>
   </g>
   <g id="patch_86">
    <path d="M 151.42182 389.2176 
L 161.107348 389.2176 
L 161.107348 259.153239 
L 151.42182 259.153239 
z
" clip-path="url(#p36fc20db25)" style="fill: #0072b2; opacity: 0.75"/>
   </g>
   <g id="patch_87">
    <path d="M 161.107348 389.2176 
L 170.792875 389.2176 
L 170.792875 269.991936 
L 161.107348 269.991936 
z
" clip-path="url(#p36fc20db25)" style="fill: #0072b2; opacity: 0.75"/>
   </g>
   <g id="patch_88">
    <path d="M 170.792875 389.2176 
L 180.478402 389.2176 
L 180.478402 282.998372 
L 170.792875 282.998372 
z
" clip-path="url(#p36fc20db25)" style="fill: #0072b2; opacity: 0.75"/>
   </g>
   <g id="patch_89">
    <path d="M 180.478402 389.2176 
L 190.16393 389.2176 
L 190.16393 309.011244 
L 180.478402 309.011244 
z
" clip-path="url(#p36fc20db25)" style="fill: #0072b2; opacity: 0.75"/>
   </g>
   <g id="patch_90">
    <path d="M 190.16393 389.2176 
L 199.849457 389.2176 
L 199.849457 306.843505 
L 190.16393 306.843505 
z
" clip-path="url(#p36fc20db25)" style="fill: #0072b2; opacity: 0.75"/>
   </g>
   <g id="patch_91">
    <path d="M 199.849457 389.2176 
L 209.534984 389.2176 
L 209.534984 300.340287 
L 199.849457 300.340287 
z
" clip-path="url(#p36fc20db25)" style="fill: #0072b2; opacity: 0.75"/>
   </g>
   <g id="patch_92">
    <path d="M 209.534984 389.2176 
L 219.220511 389.2176 
L 219.220511 326.353159 
L 209.534984 326.353159 
z
" clip-path="url(#p36fc20db25)" style="fill: #0072b2; opacity: 0.75"/>
   </g>
   <g id="patch_93">
    <path d="M 219.220511 389.2176 
L 228.906039 389.2176 
L 228.906039 306.843505 
L 219.220511 306.843505 
z
" clip-path="url(#p36fc20db25)" style="fill: #0072b2; opacity: 0.75"/>
   </g>
   <g id="patch_94">
    <path d="M 228.906039 389.2176 
L 238.591566 389.2176 
L 238.591566 304.675765 
L 228.906039 304.675765 
z
" clip-path="url(#p36fc20db25)" style="fill: #0072b2; opacity: 0.75"/>
   </g>
   <g id="patch_95">
    <path d="M 238.591566 389.2176 
L 248.277093 389.2176 
L 248.277093 337.191856 
L 238.591566 337.191856 
z
" clip-path="url(#p36fc20db25)" style="fill: #0072b2; opacity: 0.75"/>
   </g>
   <g id="patch_96">
    <path d="M 248.277093 389.2176 
L 257.96262 389.2176 
L 257.96262 319.849941 
L 248.277093 319.849941 
z
" clip-path="url(#p36fc20db25)" style="fill: #0072b2; opacity: 0.75"/>
   </g>
   <g id="patch_97">
    <path d="M 257.96262 389.2176 
L 267.648148 389.2176 
L 267.648148 352.366031 
L 257.96262 352.366031 
z
" clip-path="url(#p36fc20db25)" style="fill: #0072b2; opacity: 0.75"/>
   </g>
   <g id="patch_98">
    <path d="M 267.648148 389.2176 
L 277.333675 389.2176 
L 277.333675 341.527334 
L 267.648148 341.527334 
z
" clip-path="url(#p36fc20db25)" style="fill: #0072b2; opacity: 0.75"/>
   </g>
   <g id="patch_99">
    <path d="M 277.333675 389.2176 
L 287.019202 389.2176 
L 287.019202 356.70151 
L 277.333675 356.70151 
z
" clip-path="url(#p36fc20db25)" style="fill: #0072b2; opacity: 0.75"/>
   </g>
   <g id="patch_100">
    <path d="M 287.019202 389.2176 
L 296.70473 389.2176 
L 296.70473 358.869249 
L 287.019202 358.869249 
z
" clip-path="url(#p36fc20db25)" style="fill: #0072b2; opacity: 0.75"/>
   </g>
   <g id="patch_101">
    <path d="M 296.70473 389.2176 
L 306.390257 389.2176 
L 306.390257 356.70151 
L 296.70473 356.70151 
z
" clip-path="url(#p36fc20db25)" style="fill: #0072b2; opacity: 0.75"/>
   </g>
   <g id="patch_102">
    <path d="M 306.390257 389.2176 
L 316.075784 389.2176 
L 316.075784 361.036988 
L 306.390257 361.036988 
z
" clip-path="url(#p36fc20db25)" style="fill: #0072b2; opacity: 0.75"/>
   </g>
   <g id="patch_103">
    <path d="M 316.075784 389.2176 
L 325.761311 389.2176 
L 325.761311 367.540207 
L 316.075784 367.540207 
z
" clip-path="url(#p36fc20db25)" style="fill: #0072b2; opacity: 0.75"/>
   </g>
   <g id="patch_104">
    <path d="M 325.761311 389.2176 
L 335.446839 389.2176 
L 335.446839 365.372467 
L 325.761311 365.372467 
z
" clip-path="url(#p36fc20db25)" style="fill: #0072b2; opacity: 0.75"/>
   </g>
   <g id="patch_105">
    <path d="M 335.446839 389.2176 
L 345.132366 389.2176 
L 345.132366 363.204728 
L 335.446839 363.204728 
z
" clip-path="url(#p36fc20db25)" style="fill: #0072b2; opacity: 0.75"/>
   </g>
   <g id="patch_106">
    <path d="M 345.132366 389.2176 
L 354.817893 389.2176 
L 354.817893 367.540207 
L 345.132366 367.540207 
z
" clip-path="url(#p36fc20db25)" style="fill: #0072b2; opacity: 0.75"/>
   </g>
   <g id="patch_107">
    <path d="M 354.817893 389.2176 
L 364.50342 389.2176 
L 364.50342 374.043425 
L 354.817893 374.043425 
z
" clip-path="url(#p36fc20db25)" style="fill: #0072b2; opacity: 0.75"/>
   </g>
   <g id="patch_108">
    <path d="M 364.50342 389.2176 
L 374.188948 389.2176 
L 374.188948 378.378903 
L 364.50342 378.378903 
z
" clip-path="url(#p36fc20db25)" style="fill: #0072b2; opacity: 0.75"/>
   </g>
   <g id="patch_109">
    <path d="M 374.188948 389.2176 
L 383.874475 389.2176 
L 383.874475 367.540207 
L 374.188948 367.540207 
z
" clip-path="url(#p36fc20db25)" style="fill: #0072b2; opacity: 0.75"/>
   </g>
   <g id="patch_110">
    <path d="M 383.874475 389.2176 
L 393.560002 389.2176 
L 393.560002 369.707946 
L 383.874475 369.707946 
z
" clip-path="url(#p36fc20db25)" style="fill: #0072b2; opacity: 0.75"/>
   </g>
   <g id="patch_111">
    <path d="M 393.560002 389.2176 
L 403.24553 389.2176 
L 403.24553 361.036988 
L 393.560002 361.036988 
z
" clip-path="url(#p36fc20db25)" style="fill: #0072b2; opacity: 0.75"/>
   </g>
   <g id="patch_112">
    <path d="M 403.24553 389.2176 
L 412.931057 389.2176 
L 412.931057 363.204728 
L 403.24553 363.204728 
z
" clip-path="url(#p36fc20db25)" style="fill: #0072b2; opacity: 0.75"/>
   </g>
   <g id="patch_113">
    <path d="M 412.931057 389.2176 
L 422.616584 389.2176 
L 422.616584 376.211164 
L 412.931057 376.211164 
z
" clip-path="url(#p36fc20db25)" style="fill: #0072b2; opacity: 0.75"/>
   </g>
   <g id="patch_114">
    <path d="M 422.616584 389.2176 
L 432.302111 389.2176 
L 432.302111 376.211164 
L 422.616584 376.211164 
z
" clip-path="url(#p36fc20db25)" style="fill: #0072b2; opacity: 0.75"/>
   </g>
   <g id="patch_115">
    <path d="M 432.302111 389.2176 
L 441.987639 389.2176 
L 441.987639 380.546643 
L 432.302111 380.546643 
z
" clip-path="url(#p36fc20db25)" style="fill: #0072b2; opacity: 0.75"/>
   </g>
   <g id="patch_116">
    <path d="M 441.987639 389.2176 
L 451.673166 389.2176 
L 451.673166 367.540207 
L 441.987639 367.540207 
z
" clip-path="url(#p36fc20db25)" style="fill: #0072b2; opacity: 0.75"/>
   </g>
   <g id="patch_117">
    <path d="M 451.673166 389.2176 
L 461.358693 389.2176 
L 461.358693 382.714382 
L 451.673166 382.714382 
z
" clip-path="url(#p36fc20db25)" style="fill: #0072b2; opacity: 0.75"/>
   </g>
   <g id="patch_118">
    <path d="M 461.358693 389.2176 
L 471.04422 389.2176 
L 471.04422 382.714382 
L 461.358693 382.714382 
z
" clip-path="url(#p36fc20db25)" style="fill: #0072b2; opacity: 0.75"/>
   </g>
   <g id="patch_119">
    <path d="M 471.04422 389.2176 
L 480.729748 389.2176 
L 480.729748 382.714382 
L 471.04422 382.714382 
z
" clip-path="url(#p36fc20db25)" style="fill: #0072b2; opacity: 0.75"/>
   </g>
   <g id="patch_120">
    <path d="M 480.729748 389.2176 
L 490.415275 389.2176 
L 490.415275 374.043425 
L 480.729748 374.043425 
z
" clip-path="url(#p36fc20db25)" style="fill: #0072b2; opacity: 0.75"/>
   </g>
   <g id="patch_121">
    <path d="M 490.415275 389.2176 
L 500.100802 389.2176 
L 500.100802 374.043425 
L 490.415275 374.043425 
z
" clip-path="url(#p36fc20db25)" style="fill: #0072b2; opacity: 0.75"/>
   </g>
   <g id="patch_122">
    <path d="M 500.100802 389.2176 
L 509.78633 389.2176 
L 509.78633 380.546643 
L 500.100802 380.546643 
z
" clip-path="url(#p36fc20db25)" style="fill: #0072b2; opacity: 0.75"/>
   </g>
   <g id="patch_123">
    <path d="M 509.78633 389.2176 
L 519.471857 389.2176 
L 519.471857 380.546643 
L 509.78633 380.546643 
z
" clip-path="url(#p36fc20db25)" style="fill: #0072b2; opacity: 0.75"/>
   </g>
   <g id="patch_124">
    <path d="M 519.471857 389.2176 
L 529.157384 389.2176 
L 529.157384 384.882121 
L 519.471857 384.882121 
z
" clip-path="url(#p36fc20db25)" style="fill: #0072b2; opacity: 0.75"/>
   </g>
   <g id="patch_125">
    <path d="M 529.157384 389.2176 
L 538.842911 389.2176 
L 538.842911 384.882121 
L 529.157384 384.882121 
z
" clip-path="url(#p36fc20db25)" style="fill: #0072b2; opacity: 0.75"/>
   </g>
   <g id="patch_126">
    <path d="M 538.842911 389.2176 
L 548.528439 389.2176 
L 548.528439 384.882121 
L 538.842911 384.882121 
z
" clip-path="url(#p36fc20db25)" style="fill: #0072b2; opacity: 0.75"/>
   </g>
   <g id="patch_127">
    <path d="M 548.528439 389.2176 
L 558.213966 389.2176 
L 558.213966 382.714382 
L 548.528439 382.714382 
z
" clip-path="url(#p36fc20db25)" style="fill: #0072b2; opacity: 0.75"/>
   </g>
   <g id="patch_128">
    <path d="M 558.213966 389.2176 
L 567.899493 389.2176 
L 567.899493 387.049861 
L 558.213966 387.049861 
z
" clip-path="url(#p36fc20db25)" style="fill: #0072b2; opacity: 0.75"/>
   </g>
   <g id="patch_129">
    <path d="M 567.899493 389.2176 
L 577.58502 389.2176 
L 577.58502 380.546643 
L 567.899493 380.546643 
z
" clip-path="url(#p36fc20db25)" style="fill: #0072b2; opacity: 0.75"/>
   </g>
   <g id="patch_130">
    <path d="M 577.58502 389.2176 
L 587.270548 389.2176 
L 587.270548 382.714382 
L 577.58502 382.714382 
z
" clip-path="url(#p36fc20db25)" style="fill: #0072b2; opacity: 0.75"/>
   </g>
   <g id="patch_131">
    <path d="M 587.270548 389.2176 
L 596.956075 389.2176 
L 596.956075 384.882121 
L 587.270548 384.882121 
z
" clip-path="url(#p36fc20db25)" style="fill: #0072b2; opacity: 0.75"/>
   </g>
   <g id="patch_132">
    <path d="M 596.956075 389.2176 
L 606.641602 389.2176 
L 606.641602 384.882121 
L 596.956075 384.882121 
z
" clip-path="url(#p36fc20db25)" style="fill: #0072b2; opacity: 0.75"/>
   </g>
   <g id="patch_133">
    <path d="M 606.641602 389.2176 
L 616.32713 389.2176 
L 616.32713 387.049861 
L 606.641602 387.049861 
z
" clip-path="url(#p36fc20db25)" style="fill: #0072b2; opacity: 0.75"/>
   </g>
   <g id="patch_134">
    <path d="M 616.32713 389.2176 
L 626.012657 389.2176 
L 626.012657 387.049861 
L 616.32713 387.049861 
z
" clip-path="url(#p36fc20db25)" style="fill: #0072b2; opacity: 0.75"/>
   </g>
   <g id="patch_135">
    <path d="M 626.012657 389.2176 
L 635.698184 389.2176 
L 635.698184 387.049861 
L 626.012657 387.049861 
z
" clip-path="url(#p36fc20db25)" style="fill: #0072b2; opacity: 0.75"/>
   </g>
   <g id="patch_136">
    <path d="M 635.698184 389.2176 
L 645.383711 389.2176 
L 645.383711 384.882121 
L 635.698184 384.882121 
z
" clip-path="url(#p36fc20db25)" style="fill: #0072b2; opacity: 0.75"/>
   </g>
   <g id="patch_137">
    <path d="M 645.383711 389.2176 
L 655.069239 389.2176 
L 655.069239 384.882121 
L 645.383711 384.882121 
z
" clip-path="url(#p36fc20db25)" style="fill: #0072b2; opacity: 0.75"/>
   </g>
   <g id="patch_138">
    <path d="M 655.069239 389.2176 
L 664.754766 389.2176 
L 664.754766 387.049861 
L 655.069239 387.049861 
z
" clip-path="url(#p36fc20db25)" style="fill: #0072b2; opacity: 0.75"/>
   </g>
   <g id="patch_139">
    <path d="M 664.754766 389.2176 
L 674.440293 389.2176 
L 674.440293 389.2176 
L 664.754766 389.2176 
z
" clip-path="url(#p36fc20db25)" style="fill: #0072b2; opacity: 0.75"/>
   </g>
   <g id="patch_140">
    <path d="M 674.440293 389.2176 
L 684.12582 389.2176 
L 684.12582 382.714382 
L 674.440293 382.714382 
z
" clip-path="url(#p36fc20db25)" style="fill: #0072b2; opacity: 0.75"/>
   </g>
   <g id="patch_141">
    <path d="M 684.12582 389.2176 
L 693.811348 389.2176 
L 693.811348 389.2176 
L 684.12582 389.2176 
z
" clip-path="url(#p36fc20db25)" style="fill: #0072b2; opacity: 0.75"/>
   </g>
   <g id="patch_142">
    <path d="M 693.811348 389.2176 
L 703.496875 389.2176 
L 703.496875 387.049861 
L 693.811348 387.049861 
z
" clip-path="url(#p36fc20db25)" style="fill: #0072b2; opacity: 0.75"/>
   </g>
   <g id="patch_143">
    <path d="M 703.496875 389.2176 
L 713.182402 389.2176 
L 713.182402 384.882121 
L 703.496875 384.882121 
z
" clip-path="url(#p36fc20db25)" style="fill: #0072b2; opacity: 0.75"/>
   </g>
   <g id="patch_144">
    <path d="M 713.182402 389.2176 
L 722.86793 389.2176 
L 722.86793 389.2176 
L 713.182402 389.2176 
z
" clip-path="url(#p36fc20db25)" style="fill: #0072b2; opacity: 0.75"/>
   </g>
   <g id="patch_145">
    <path d="M 722.86793 389.2176 
L 732.553457 389.2176 
L 732.553457 389.2176 
L 722.86793 389.2176 
z
" clip-path="url(#p36fc20db25)" style="fill: #0072b2; opacity: 0.75"/>
   </g>
   <g id="patch_146">
    <path d="M 732.553457 389.2176 
L 742.238984 389.2176 
L 742.238984 389.2176 
L 732.553457 389.2176 
z
" clip-path="url(#p36fc20db25)" style="fill: #0072b2; opacity: 0.75"/>
   </g>
   <g id="patch_147">
    <path d="M 742.238984 389.2176 
L 751.924511 389.2176 
L 751.924511 387.049861 
L 742.238984 387.049861 
z
" clip-path="url(#p36fc20db25)" style="fill: #0072b2; opacity: 0.75"/>
   </g>
   <g id="patch_148">
    <path d="M 751.924511 389.2176 
L 761.610039 389.2176 
L 761.610039 389.2176 
L 751.924511 389.2176 
z
" clip-path="url(#p36fc20db25)" style="fill: #0072b2; opacity: 0.75"/>
   </g>
   <g id="patch_149">
    <path d="M 761.610039 389.2176 
L 771.295566 389.2176 
L 771.295566 389.2176 
L 761.610039 389.2176 
z
" clip-path="url(#p36fc20db25)" style="fill: #0072b2; opacity: 0.75"/>
   </g>
   <g id="patch_150">
    <path d="M 771.295566 389.2176 
L 780.981093 389.2176 
L 780.981093 389.2176 
L 771.295566 389.2176 
z
" clip-path="url(#p36fc20db25)" style="fill: #0072b2; opacity: 0.75"/>
   </g>
   <g id="patch_151">
    <path d="M 780.981093 389.2176 
L 790.66662 389.2176 
L 790.66662 389.2176 
L 780.981093 389.2176 
z
" clip-path="url(#p36fc20db25)" style="fill: #0072b2; opacity: 0.75"/>
   </g>
   <g id="patch_152">
    <path d="M 790.66662 389.2176 
L 800.352148 389.2176 
L 800.352148 389.2176 
L 790.66662 389.2176 
z
" clip-path="url(#p36fc20db25)" style="fill: #0072b2; opacity: 0.75"/>
   </g>
   <g id="patch_153">
    <path d="M 73.937602 389.2176 
L 83.62313 389.2176 
L 83.62313 389.2176 
L 73.937602 389.2176 
z
" clip-path="url(#p36fc20db25)" style="fill: #d55e00; opacity: 0.75"/>
   </g>
   <g id="patch_154">
    <path d="M 83.62313 389.2176 
L 93.308657 389.2176 
L 93.308657 389.2176 
L 83.62313 389.2176 
z
" clip-path="url(#p36fc20db25)" style="fill: #d55e00; opacity: 0.75"/>
   </g>
   <g id="patch_155">
    <path d="M 93.308657 389.2176 
L 102.994184 389.2176 
L 102.994184 389.2176 
L 93.308657 389.2176 
z
" clip-path="url(#p36fc20db25)" style="fill: #d55e00; opacity: 0.75"/>
   </g>
   <g id="patch_156">
    <path d="M 102.994184 389.2176 
L 112.679711 389.2176 
L 112.679711 389.2176 
L 102.994184 389.2176 
z
" clip-path="url(#p36fc20db25)" style="fill: #d55e00; opacity: 0.75"/>
   </g>
   <g id="patch_157">
    <path d="M 112.679711 389.2176 
L 122.365239 389.2176 
L 122.365239 389.2176 
L 112.679711 389.2176 
z
" clip-path="url(#p36fc20db25)" style="fill: #d55e00; opacity: 0.75"/>
   </g>
   <g id="patch_158">
    <path d="M 122.365239 389.2176 
L 132.050766 389.2176 
L 132.050766 387.049861 
L 122.365239 387.049861 
z
" clip-path="url(#p36fc20db25)" style="fill: #d55e00; opacity: 0.75"/>
   </g>
   <g id="patch_159">
    <path d="M 132.050766 389.2176 
L 141.736293 389.2176 
L 141.736293 384.882121 
L 132.050766 384.882121 
z
" clip-path="url(#p36fc20db25)" style="fill: #d55e00; opacity: 0.75"/>
   </g>
   <g id="patch_160">
    <path d="M 141.736293 389.2176 
L 151.42182 389.2176 
L 151.42182 384.882121 
L 141.736293 384.882121 
z
" clip-path="url(#p36fc20db25)" style="fill: #d55e00; opacity: 0.75"/>
   </g>
   <g id="patch_161">
    <path d="M 151.42182 389.2176 
L 161.107348 389.2176 
L 161.107348 374.043425 
L 151.42182 374.043425 
z
" clip-path="url(#p36fc20db25)" style="fill: #d55e00; opacity: 0.75"/>
   </g>
   <g id="patch_162">
    <path d="M 161.107348 389.2176 
L 170.792875 389.2176 
L 170.792875 374.043425 
L 161.107348 374.043425 
z
" clip-path="url(#p36fc20db25)" style="fill: #d55e00; opacity: 0.75"/>
   </g>
   <g id="patch_163">
    <path d="M 170.792875 389.2176 
L 180.478402 389.2176 
L 180.478402 365.372467 
L 170.792875 365.372467 
z
" clip-path="url(#p36fc20db25)" style="fill: #d55e00; opacity: 0.75"/>
   </g>
   <g id="patch_164">
    <path d="M 180.478402 389.2176 
L 190.16393 389.2176 
L 190.16393 371.875685 
L 180.478402 371.875685 
z
" clip-path="url(#p36fc20db25)" style="fill: #d55e00; opacity: 0.75"/>
   </g>
   <g id="patch_165">
    <path d="M 190.16393 389.2176 
L 199.849457 389.2176 
L 199.849457 343.695074 
L 190.16393 343.695074 
z
" clip-path="url(#p36fc20db25)" style="fill: #d55e00; opacity: 0.75"/>
   </g>
   <g id="patch_166">
    <path d="M 199.849457 389.2176 
L 209.534984 389.2176 
L 209.534984 369.707946 
L 199.849457 369.707946 
z
" clip-path="url(#p36fc20db25)" style="fill: #d55e00; opacity: 0.75"/>
   </g>
   <g id="patch_167">
    <path d="M 209.534984 389.2176 
L 219.220511 389.2176 
L 219.220511 376.211164 
L 209.534984 376.211164 
z
" clip-path="url(#p36fc20db25)" style="fill: #d55e00; opacity: 0.75"/>
   </g>
   <g id="patch_168">
    <path d="M 219.220511 389.2176 
L 228.906039 389.2176 
L 228.906039 343.695074 
L 219.220511 343.695074 
z
" clip-path="url(#p36fc20db25)" style="fill: #d55e00; opacity: 0.75"/>
   </g>
   <g id="patch_169">
    <path d="M 228.906039 389.2176 
L 238.591566 389.2176 
L 238.591566 365.372467 
L 228.906039 365.372467 
z
" clip-path="url(#p36fc20db25)" style="fill: #d55e00; opacity: 0.75"/>
   </g>
   <g id="patch_170">
    <path d="M 238.591566 389.2176 
L 248.277093 389.2176 
L 248.277093 356.70151 
L 238.591566 356.70151 
z
" clip-path="url(#p36fc20db25)" style="fill: #d55e00; opacity: 0.75"/>
   </g>
   <g id="patch_171">
    <path d="M 248.277093 389.2176 
L 257.96262 389.2176 
L 257.96262 365.372467 
L 248.277093 365.372467 
z
" clip-path="url(#p36fc20db25)" style="fill: #d55e00; opacity: 0.75"/>
   </g>
   <g id="patch_172">
    <path d="M 257.96262 389.2176 
L 267.648148 389.2176 
L 267.648148 358.869249 
L 257.96262 358.869249 
z
" clip-path="url(#p36fc20db25)" style="fill: #d55e00; opacity: 0.75"/>
   </g>
   <g id="patch_173">
    <path d="M 267.648148 389.2176 
L 277.333675 389.2176 
L 277.333675 326.353159 
L 267.648148 326.353159 
z
" clip-path="url(#p36fc20db25)" style="fill: #d55e00; opacity: 0.75"/>
   </g>
   <g id="patch_174">
    <path d="M 277.333675 389.2176 
L 287.019202 389.2176 
L 287.019202 343.695074 
L 277.333675 343.695074 
z
" clip-path="url(#p36fc20db25)" style="fill: #d55e00; opacity: 0.75"/>
   </g>
   <g id="patch_175">
    <path d="M 287.019202 389.2176 
L 296.70473 389.2176 
L 296.70473 358.869249 
L 287.019202 358.869249 
z
" clip-path="url(#p36fc20db25)" style="fill: #d55e00; opacity: 0.75"/>
   </g>
   <g id="patch_176">
    <path d="M 296.70473 389.2176 
L 306.390257 389.2176 
L 306.390257 343.695074 
L 296.70473 343.695074 
z
" clip-path="url(#p36fc20db25)" style="fill: #d55e00; opacity: 0.75"/>
   </g>
   <g id="patch_177">
    <path d="M 306.390257 389.2176 
L 316.075784 389.2176 
L 316.075784 332.856377 
L 306.390257 332.856377 
z
" clip-path="url(#p36fc20db25)" style="fill: #d55e00; opacity: 0.75"/>
   </g>
   <g id="patch_178">
    <path d="M 316.075784 389.2176 
L 325.761311 389.2176 
L 325.761311 348.030552 
L 316.075784 348.030552 
z
" clip-path="url(#p36fc20db25)" style="fill: #d55e00; opacity: 0.75"/>
   </g>
   <g id="patch_179">
    <path d="M 325.761311 389.2176 
L 335.446839 389.2176 
L 335.446839 356.70151 
L 325.761311 356.70151 
z
" clip-path="url(#p36fc20db25)" style="fill: #d55e00; opacity: 0.75"/>
   </g>
   <g id="patch_180">
    <path d="M 335.446839 389.2176 
L 345.132366 389.2176 
L 345.132366 361.036988 
L 335.446839 361.036988 
z
" clip-path="url(#p36fc20db25)" style="fill: #d55e00; opacity: 0.75"/>
   </g>
   <g id="patch_181">
    <path d="M 345.132366 389.2176 
L 354.817893 389.2176 
L 354.817893 341.527334 
L 345.132366 341.527334 
z
" clip-path="url(#p36fc20db25)" style="fill: #d55e00; opacity: 0.75"/>
   </g>
   <g id="patch_182">
    <path d="M 354.817893 389.2176 
L 364.50342 389.2176 
L 364.50342 343.695074 
L 354.817893 343.695074 
z
" clip-path="url(#p36fc20db25)" style="fill: #d55e00; opacity: 0.75"/>
   </g>
   <g id="patch_183">
    <path d="M 364.50342 389.2176 
L 374.188948 389.2176 
L 374.188948 354.53377 
L 364.50342 354.53377 
z
" clip-path="url(#p36fc20db25)" style="fill: #d55e00; opacity: 0.75"/>
   </g>
   <g id="patch_184">
    <path d="M 374.188948 389.2176 
L 383.874475 389.2176 
L 383.874475 361.036988 
L 374.188948 361.036988 
z
" clip-path="url(#p36fc20db25)" style="fill: #d55e00; opacity: 0.75"/>
   </g>
   <g id="patch_185">
    <path d="M 383.874475 389.2176 
L 393.560002 389.2176 
L 393.560002 350.198292 
L 383.874475 350.198292 
z
" clip-path="url(#p36fc20db25)" style="fill: #d55e00; opacity: 0.75"/>
   </g>
   <g id="patch_186">
    <path d="M 393.560002 389.2176 
L 403.24553 389.2176 
L 403.24553 341.527334 
L 393.560002 341.527334 
z
" clip-path="url(#p36fc20db25)" style="fill: #d55e00; opacity: 0.75"/>
   </g>
   <g id="patch_187">
    <path d="M 403.24553 389.2176 
L 412.931057 389.2176 
L 412.931057 348.030552 
L 403.24553 348.030552 
z
" clip-path="url(#p36fc20db25)" style="fill: #d55e00; opacity: 0.75"/>
   </g>
   <g id="patch_188">
    <path d="M 412.931057 389.2176 
L 422.616584 389.2176 
L 422.616584 354.53377 
L 412.931057 354.53377 
z
" clip-path="url(#p36fc20db25)" style="fill: #d55e00; opacity: 0.75"/>
   </g>
   <g id="patch_189">
    <path d="M 422.616584 389.2176 
L 432.302111 389.2176 
L 432.302111 365.372467 
L 422.616584 365.372467 
z
" clip-path="url(#p36fc20db25)" style="fill: #d55e00; opacity: 0.75"/>
   </g>
   <g id="patch_190">
    <path d="M 432.302111 389.2176 
L 441.987639 389.2176 
L 441.987639 335.024116 
L 432.302111 335.024116 
z
" clip-path="url(#p36fc20db25)" style="fill: #d55e00; opacity: 0.75"/>
   </g>
   <g id="patch_191">
    <path d="M 441.987639 389.2176 
L 451.673166 389.2176 
L 451.673166 361.036988 
L 441.987639 361.036988 
z
" clip-path="url(#p36fc20db25)" style="fill: #d55e00; opacity: 0.75"/>
   </g>
   <g id="patch_192">
    <path d="M 451.673166 389.2176 
L 461.358693 389.2176 
L 461.358693 337.191856 
L 451.673166 337.191856 
z
" clip-path="url(#p36fc20db25)" style="fill: #d55e00; opacity: 0.75"/>
   </g>
   <g id="patch_193">
    <path d="M 461.358693 389.2176 
L 471.04422 389.2176 
L 471.04422 343.695074 
L 461.358693 343.695074 
z
" clip-path="url(#p36fc20db25)" style="fill: #d55e00; opacity: 0.75"/>
   </g>
   <g id="patch_194">
    <path d="M 471.04422 389.2176 
L 480.729748 389.2176 
L 480.729748 352.366031 
L 471.04422 352.366031 
z
" clip-path="url(#p36fc20db25)" style="fill: #d55e00; opacity: 0.75"/>
   </g>
   <g id="patch_195">
    <path d="M 480.729748 389.2176 
L 490.415275 389.2176 
L 490.415275 341.527334 
L 480.729748 341.527334 
z
" clip-path="url(#p36fc20db25)" style="fill: #d55e00; opacity: 0.75"/>
   </g>
   <g id="patch_196">
    <path d="M 490.415275 389.2176 
L 500.100802 389.2176 
L 500.100802 341.527334 
L 490.415275 341.527334 
z
" clip-path="url(#p36fc20db25)" style="fill: #d55e00; opacity: 0.75"/>
   </g>
   <g id="patch_197">
    <path d="M 500.100802 389.2176 
L 509.78633 389.2176 
L 509.78633 352.366031 
L 500.100802 352.366031 
z
" clip-path="url(#p36fc20db25)" style="fill: #d55e00; opacity: 0.75"/>
   </g>
   <g id="patch_198">
    <path d="M 509.78633 389.2176 
L 519.471857 389.2176 
L 519.471857 352.366031 
L 509.78633 352.366031 
z
" clip-path="url(#p36fc20db25)" style="fill: #d55e00; opacity: 0.75"/>
   </g>
   <g id="patch_199">
    <path d="M 519.471857 389.2176 
L 529.157384 389.2176 
L 529.157384 343.695074 
L 519.471857 343.695074 
z
" clip-path="url(#p36fc20db25)" style="fill: #d55e00; opacity: 0.75"/>
   </g>
   <g id="patch_200">
    <path d="M 529.157384 389.2176 
L 538.842911 389.2176 
L 538.842911 341.527334 
L 529.157384 341.527334 
z
" clip-path="url(#p36fc20db25)" style="fill: #d55e00; opacity: 0.75"/>
   </g>
   <g id="patch_201">
    <path d="M 538.842911 389.2176 
L 548.528439 389.2176 
L 548.528439 356.70151 
L 538.842911 356.70151 
z
" clip-path="url(#p36fc20db25)" style="fill: #d55e00; opacity: 0.75"/>
   </g>
   <g id="patch_202">
    <path d="M 548.528439 389.2176 
L 558.213966 389.2176 
L 558.213966 352.366031 
L 548.528439 352.366031 
z
" clip-path="url(#p36fc20db25)" style="fill: #d55e00; opacity: 0.75"/>
   </g>
   <g id="patch_203">
    <path d="M 558.213966 389.2176 
L 567.899493 389.2176 
L 567.899493 356.70151 
L 558.213966 356.70151 
z
" clip-path="url(#p36fc20db25)" style="fill: #d55e00; opacity: 0.75"/>
   </g>
   <g id="patch_204">
    <path d="M 567.899493 389.2176 
L 577.58502 389.2176 
L 577.58502 345.862813 
L 567.899493 345.862813 
z
" clip-path="url(#p36fc20db25)" style="fill: #d55e00; opacity: 0.75"/>
   </g>
   <g id="patch_205">
    <path d="M 577.58502 389.2176 
L 587.270548 389.2176 
L 587.270548 341.527334 
L 577.58502 341.527334 
z
" clip-path="url(#p36fc20db25)" style="fill: #d55e00; opacity: 0.75"/>
   </g>
   <g id="patch_206">
    <path d="M 587.270548 389.2176 
L 596.956075 389.2176 
L 596.956075 350.198292 
L 587.270548 350.198292 
z
" clip-path="url(#p36fc20db25)" style="fill: #d55e00; opacity: 0.75"/>
   </g>
   <g id="patch_207">
    <path d="M 596.956075 389.2176 
L 606.641602 389.2176 
L 606.641602 358.869249 
L 596.956075 358.869249 
z
" clip-path="url(#p36fc20db25)" style="fill: #d55e00; opacity: 0.75"/>
   </g>
   <g id="patch_208">
    <path d="M 606.641602 389.2176 
L 616.32713 389.2176 
L 616.32713 354.53377 
L 606.641602 354.53377 
z
" clip-path="url(#p36fc20db25)" style="fill: #d55e00; opacity: 0.75"/>
   </g>
   <g id="patch_209">
    <path d="M 616.32713 389.2176 
L 626.012657 389.2176 
L 626.012657 367.540207 
L 616.32713 367.540207 
z
" clip-path="url(#p36fc20db25)" style="fill: #d55e00; opacity: 0.75"/>
   </g>
   <g id="patch_210">
    <path d="M 626.012657 389.2176 
L 635.698184 389.2176 
L 635.698184 363.204728 
L 626.012657 363.204728 
z
" clip-path="url(#p36fc20db25)" style="fill: #d55e00; opacity: 0.75"/>
   </g>
   <g id="patch_211">
    <path d="M 635.698184 389.2176 
L 645.383711 389.2176 
L 645.383711 363.204728 
L 635.698184 363.204728 
z
" clip-path="url(#p36fc20db25)" style="fill: #d55e00; opacity: 0.75"/>
   </g>
   <g id="patch_212">
    <path d="M 645.383711 389.2176 
L 655.069239 389.2176 
L 655.069239 356.70151 
L 645.383711 356.70151 
z
" clip-path="url(#p36fc20db25)" style="fill: #d55e00; opacity: 0.75"/>
   </g>
   <g id="patch_213">
    <path d="M 655.069239 389.2176 
L 664.754766 389.2176 
L 664.754766 365.372467 
L 655.069239 365.372467 
z
" clip-path="url(#p36fc20db25)" style="fill: #d55e00; opacity: 0.75"/>
   </g>
   <g id="patch_214">
    <path d="M 664.754766 389.2176 
L 674.440293 389.2176 
L 674.440293 365.372467 
L 664.754766 365.372467 
z
" clip-path="url(#p36fc20db25)" style="fill: #d55e00; opacity: 0.75"/>
   </g>
   <g id="patch_215">
    <path d="M 674.440293 389.2176 
L 684.12582 389.2176 
L 684.12582 352.366031 
L 674.440293 352.366031 
z
" clip-path="url(#p36fc20db25)" style="fill: #d55e00; opacity: 0.75"/>
   </g>
   <g id="patch_216">
    <path d="M 684.12582 389.2176 
L 693.811348 389.2176 
L 693.811348 363.204728 
L 684.12582 363.204728 
z
" clip-path="url(#p36fc20db25)" style="fill: #d55e00; opacity: 0.75"/>
   </g>
   <g id="patch_217">
    <path d="M 693.811348 389.2176 
L 703.496875 389.2176 
L 703.496875 361.036988 
L 693.811348 361.036988 
z
" clip-path="url(#p36fc20db25)" style="fill: #d55e00; opacity: 0.75"/>
   </g>
   <g id="patch_218">
    <path d="M 703.496875 389.2176 
L 713.182402 389.2176 
L 713.182402 363.204728 
L 703.496875 363.204728 
z
" clip-path="url(#p36fc20db25)" style="fill: #d55e00; opacity: 0.75"/>
   </g>
   <g id="patch_219">
    <path d="M 713.182402 389.2176 
L 722.86793 389.2176 
L 722.86793 367.540207 
L 713.182402 367.540207 
z
" clip-path="url(#p36fc20db25)" style="fill: #d55e00; opacity: 0.75"/>
   </g>
   <g id="patch_220">
    <path d="M 722.86793 389.2176 
L 732.553457 389.2176 
L 732.553457 365.372467 
L 722.86793 365.372467 
z
" clip-path="url(#p36fc20db25)" style="fill: #d55e00; opacity: 0.75"/>
   </g>
   <g id="patch_221">
    <path d="M 732.553457 389.2176 
L 742.238984 389.2176 
L 742.238984 367.540207 
L 732.553457 367.540207 
z
" clip-path="url(#p36fc20db25)" style="fill: #d55e00; opacity: 0.75"/>
   </g>
   <g id="patch_222">
    <path d="M 742.238984 389.2176 
L 751.924511 389.2176 
L 751.924511 371.875685 
L 742.238984 371.875685 
z
" clip-path="url(#p36fc20db25)" style="fill: #d55e00; opacity: 0.75"/>
   </g>
   <g id="patch_223">
    <path d="M 751.924511 389.2176 
L 761.610039 389.2176 
L 761.610039 376.211164 
L 751.924511 376.211164 
z
" clip-path="url(#p36fc20db25)" style="fill: #d55e00; opacity: 0.75"/>
   </g>
   <g id="patch_224">
    <path d="M 761.610039 389.2176 
L 771.295566 389.2176 
L 771.295566 376.211164 
L 761.610039 376.211164 
z
" clip-path="url(#p36fc20db25)" style="fill: #d55e00; opacity: 0.75"/>
   </g>
   <g id="patch_225">
    <path d="M 771.295566 389.2176 
L 780.981093 389.2176 
L 780.981093 382.714382 
L 771.295566 382.714382 
z
" clip-path="url(#p36fc20db25)" style="fill: #d55e00; opacity: 0.75"/>
   </g>
   <g id="patch_226">
    <path d="M 780.981093 389.2176 
L 790.66662 389.2176 
L 790.66662 387.049861 
L 780.981093 387.049861 
z
" clip-path="url(#p36fc20db25)" style="fill: #d55e00; opacity: 0.75"/>
   </g>
   <g id="patch_227">
    <path d="M 790.66662 389.2176 
L 800.352148 389.2176 
L 800.352148 389.2176 
L 790.66662 389.2176 
z
" clip-path="url(#p36fc20db25)" style="fill: #d55e00; opacity: 0.75"/>
   </g>
   <g id="patch_228">
    <path d="M 37.616875 389.2176 
L 37.616875 0 
" style="fill: none; stroke: #808080; stroke-linejoin: miter; stroke-linecap: square"/>
   </g>
   <g id="patch_229">
    <path d="M 836.672875 389.2176 
L 836.672875 0 
" style="fill: none; stroke: #808080; stroke-linejoin: miter; stroke-linecap: square"/>
   </g>
   <g id="patch_230">
    <path d="M 37.616875 389.2176 
L 836.672875 389.2176 
" style="fill: none; stroke: #808080; stroke-linejoin: miter; stroke-linecap: square"/>
   </g>
   <g id="patch_231">
    <path d="M 37.616875 0 
L 836.672875 0 
" style="fill: none; stroke: #808080; stroke-linejoin: miter; stroke-linecap: square"/>
   </g>
   <g id="legend_1">
    <g id="patch_232">
     <path d="M 718.226313 22.782813 
L 735.026313 22.782813 
L 735.026313 12.982813 
L 718.226313 12.982813 
z
" style="fill: #009e73; opacity: 0.75"/>
    </g>
    <g id="text_16">
     <text style="fill: #262626; font: 14px 'sans-serif'; text-anchor: start" x="740.626313" y="22.782813" transform="rotate(-0, 740.626313, 22.782813)">Ideal ST</text>
    </g>
    <g id="patch_233">
     <path d="M 718.226313 38.629063 
L 735.026313 38.629063 
L 735.026313 28.829063 
L 718.226313 28.829063 
z
" style="fill: #0072b2; opacity: 0.75"/>
    </g>
    <g id="text_17">
     <text style="fill: #262626; font: 14px 'sans-serif'; text-anchor: start" x="740.626313" y="38.629063" transform="rotate(-0, 740.626313, 38.629063)">WQN</text>
    </g>
    <g id="patch_234">
     <path d="M 718.226313 54.475313 
L 735.026313 54.475313 
L 735.026313 44.675313 
L 718.226313 44.675313 
z
" style="fill: #d55e00; opacity: 0.75"/>
    </g>
    <g id="text_18">
     <text style="fill: #262626; font: 14px 'sans-serif'; text-anchor: start" x="740.626313" y="54.475313" transform="rotate(-0, 740.626313, 54.475313)">Universal ST</text>
    </g>
   </g>
  </g>
 </g>
 <defs>
  <clipPath id="p36fc20db25">
   <rect x="37.616875" y="0" width="799.056" height="389.2176"/>
  </clipPath>
 </defs>
</svg>
